<?xml version="1.0" encoding="UTF-8" standalone="no"?>
<svg
   xmlns:dc="http://purl.org/dc/elements/1.1/"
   xmlns:cc="http://creativecommons.org/ns#"
   xmlns:rdf="http://www.w3.org/1999/02/22-rdf-syntax-ns#"
   xmlns:svg="http://www.w3.org/2000/svg"
   xmlns="http://www.w3.org/2000/svg"
   xmlns:sodipodi="http://sodipodi.sourceforge.net/DTD/sodipodi-0.dtd"
   xmlns:inkscape="http://www.inkscape.org/namespaces/inkscape"
   width="310"
   height="310"
   version="1.1"
   xml:space="preserve"
   style="clip-rule:evenodd;fill-rule:evenodd"
   id="svg2"
   inkscape:version="0.91 r13725"
   sodipodi:docname="favicon_original.svg"
   inkscape:export-filename="/home/clemens/Documents/cv/website/favicon/favicon_original.png"
   inkscape:export-xdpi="90"
   inkscape:export-ydpi="90"><metadata
     id="metadata12"><rdf:RDF><cc:Work
         rdf:about=""><dc:format>image/svg+xml</dc:format><dc:type
           rdf:resource="http://purl.org/dc/dcmitype/StillImage" /><dc:title></dc:title></cc:Work></rdf:RDF></metadata><defs
     id="defs10" /><sodipodi:namedview
     pagecolor="#ffffff"
     bordercolor="#666666"
     borderopacity="1"
     objecttolerance="10"
     gridtolerance="10"
     guidetolerance="10"
     inkscape:pageopacity="0"
     inkscape:pageshadow="2"
     inkscape:window-width="1301"
     inkscape:window-height="744"
     id="namedview8"
     showgrid="false"
     fit-margin-top="0"
     fit-margin-left="0"
     fit-margin-right="-0.1"
     fit-margin-bottom="0"
     inkscape:zoom="1.0642857"
     inkscape:cx="159.5779"
     inkscape:cy="194.4308"
     inkscape:window-x="65"
     inkscape:window-y="24"
     inkscape:window-maximized="1"
     inkscape:current-layer="svg2"
     units="px" /><g
     id="g4140"
     transform="translate(36.239366,-0.03356212)"><path
       style="fill:#000000"
       inkscape:connector-curvature="0"
       id="path4"
       d="m 119.8065,217.35138 a 108.91509,108.91509 0 0 1 -10.89151,0.54593 108.9151,108.9151 0 1 1 0,-217.83019153 108.91509,108.91509 0 0 1 10.89151,0.54594344 l 0,32.67453009 a 76.240566,76.240566 0 0 0 -10.89151,-0.545944 76.240571,76.240571 0 1 0 0,152.481142 76.240566,76.240566 0 0 0 10.89151,-0.54596 z" /><path
       style="fill:#000000"
       inkscape:connector-curvature="0"
       id="path6"
       d="m 237.55175,309.45407 a 108.91509,108.91509 0 0 1 -10.8915,0.54594 108.9151,108.9151 0 1 1 0,-217.8302 108.91509,108.91509 0 0 1 10.8915,0.545948 l 0,32.674532 a 76.240566,76.240566 0 0 0 -10.8915,-0.54594 76.240566,76.240566 0 0 0 -74.47584,59.9033 l 63.58433,0 0,32.67453 -63.58433,0 a 76.240566,76.240566 0 0 0 74.47584,59.90331 76.240566,76.240566 0 0 0 10.8915,-0.54596 z" /></g></svg>